<?xml version="1.0" encoding="iso-8859-1"?>
<!-- Generator: Adobe Illustrator 19.0.0, SVG Export Plug-In . SVG Version: 6.00 Build 0)  -->
<svg version="1.1" id="Capa_1" xmlns="http://www.w3.org/2000/svg" xmlns:xlink="http://www.w3.org/1999/xlink" x="0px" y="0px"
	 viewBox="0 0 512 512" style="enable-background:new 0 0 512 512;" xml:space="preserve">
<path style="fill:#E0230D;" d="M378.843,9.006c-3.626,0-7.212,0.144-10.756,0.433L248.825,492.304
	c-1.679,7.431,6.975,12.818,12.885,8.011C376.766,406.751,512,270.404,512,142.162C512,68.625,452.38,9.006,378.843,9.006z"/>
<path style="fill:#FF5440;" d="M368.087,9.438c57.487,5.471,102.704,62.813,102.704,132.724
	c0,132.682-110.482,264.278-209.747,358.63c-2.896,2.752-7.384,2.947-10.507,0.457C133.713,408.169,3.617,278.688,0.051,147.66
	C-1.993,72.569,57.378,9.359,132.496,9.007c55.575-0.26,103.294,33.534,123.491,81.717C274.79,45.867,317.441,13.487,368.087,9.438z
	"/>
<g>
</g>
<g>
</g>
<g>
</g>
<g>
</g>
<g>
</g>
<g>
</g>
<g>
</g>
<g>
</g>
<g>
</g>
<g>
</g>
<g>
</g>
<g>
</g>
<g>
</g>
<g>
</g>
<g>
</g>
</svg>
